<!DOCTYPE svg PUBLIC "-//W3C//DTD SVG 20010904//EN" "http://www.w3.org/TR/2001/REC-SVG-20010904/DTD/svg10.dtd">
<svg version="1.0" xmlns="http://www.w3.org/2000/svg" width="646px" height="206px" viewBox="0 0 6460 2060" preserveAspectRatio="xMidYMid meet">
<!-- generated by www.vectorizer.io -->
<g id="layer1" fill="#4a4b48" stroke="none">
 <path d="M1097 1808 c-15 -12 -21 -47 -17 -108 2 -38 -10 -400 -15 -442 -4 -35 -1 -54 12 -74 16 -24 16 -27 0 -36 -15 -8 -17 -28 -17 -148 0 -105 3 -140 13 -140 9 0 9 -2 -1 -9 -19 -12 -28 -260 -10 -266 7 -2 74 -6 150 -9 100 -4 139 -2 146 7 11 14 22 57 28 112 3 22 11 56 19 76 8 20 11 40 8 43 -4 3 -1 16 5 29 22 43 52 225 42 253 -13 32 -13 43 0 24 9 -13 11 -13 20 0 5 8 10 33 10 55 0 22 4 56 10 75 5 19 13 70 16 112 4 48 12 82 21 90 11 9 15 7 20 -10 3 -12 10 -22 15 -22 7 0 6 -5 -1 -14 -21 -25 -30 -141 -21 -271 1 -22 -3 -68 -9 -102 -6 -33 -9 -77 -7 -97 3 -19 1 -38 -5 -41 -5 -4 -6 -13 0 -22 5 -9 5 -30 1 -47 -12 -47 -22 -244 -12 -250 13 -8 187 -15 198 -8 24 16 34 146 40 532 8 551 8 670 -2 680 -14 14 -290 25 -298 12 -4 -6 -20 -73 -37 -149 -16 -76 -32 -145 -36 -153 -3 -8 -8 -24 -10 -35 -2 -11 -10 -54 -19 -95 -20 -96 -24 -117 -29 -160 -2 -19 -7 -44 -9 -56 -3 -12 -10 -52 -16 -90 -13 -91 -29 -146 -40 -139 -5 3 -7 26 -3 50 4 29 1 50 -7 60 -9 10 -9 15 -1 15 6 0 11 18 11 44 0 24 4 46 10 48 6 2 4 13 -4 29 -8 17 -10 32 -5 40 5 8 8 35 7 60 -1 25 2 51 7 59 8 13 9 139 2 193 -3 15 0 30 5 33 5 3 9 31 8 62 0 32 2 87 6 124 5 59 4 69 -11 74 -10 4 -25 3 -34 -3 -10 -6 -29 -6 -51 0 -70 17 -85 18 -103 5z m509 -140 c-9 -62 -19 -98 -27 -98 -5 0 -4 11 1 25 6 17 6 27 -2 31 -7 4 -14 2 -16 -4 -7 -21 -20 -3 -15 19 5 16 8 18 15 7 7 -10 11 -9 23 6 8 11 15 26 15 33 0 7 2 13 5 13 3 0 3 -15 1 -32z m-411 -8 c3 -5 -1 -10 -9 -10 -9 0 -16 5 -16 10 0 6 4 10 9 10 6 0 13 -4 16 -10z m512 -57 c-4 -3 -7 0 -7 7 0 7 3 10 7 7 3 -4 3 -10 0 -14z m-30 -10 c-4 -3 -10 -3 -14 0 -3 4 0 7 7 7 7 0 10 -3 7 -7z m-35 -94 c3 -9 11 -8 28 1 24 12 24 12 8 -6 -14 -17 -14 -21 -1 -33 22 -20 10 -23 -23 -6 -16 8 -25 15 -21 15 4 0 3 9 -3 20 -6 12 -7 20 -1 20 5 0 11 -5 13 -11z m-95 -16 c-4 -3 -10 -3 -14 0 -3 4 0 7 7 7 7 0 10 -3 7 -7z m98 -43 c3 -5 1 -10 -4 -10 -6 0 -11 5 -11 10 0 6 2 10 4 10 3 0 8 -4 11 -10z m-185 -170 c0 -5 -4 -10 -10 -10 -5 0 -10 5 -10 10 0 6 5 10 10 10 6 0 10 -4 10 -10z m-260 -14 c0 -8 -51 -13 -56 -5 -3 5 9 9 25 9 17 0 31 -2 31 -4z m261 -56 c6 0 7 -5 3 -11 -5 -8 -9 -8 -14 1 -5 8 -14 3 -29 -16 l-21 -27 0 32 c0 21 5 31 15 31 9 0 19 8 23 18 6 15 7 14 10 -5 2 -13 8 -23 13 -23z m-276 -1 c2 -17 0 -18 -13 -5 -8 8 -11 19 -7 26 9 15 18 5 20 -21z m445 1 c0 -5 -5 -10 -11 -10 -5 0 -7 5 -4 10 3 6 8 10 11 10 2 0 4 -4 4 -10z m-448 -72 c-9 -9 -12 -7 -12 12 0 19 3 21 12 12 9 -9 9 -15 0 -24z m58 11 c0 -6 -4 -7 -10 -4 -5 3 -10 11 -10 16 0 6 5 7 10 4 6 -3 10 -11 10 -16z m455 11 c3 -5 2 -10 -4 -10 -5 0 -13 5 -16 10 -3 6 -2 10 4 10 5 0 13 -4 16 -10z m-21 -129 c16 -17 16 -19 -1 -23 -13 -4 -18 1 -19 19 -2 28 -2 28 20 4z m-60 -36 c3 -9 0 -15 -9 -15 -8 0 -15 7 -15 15 0 8 4 15 9 15 5 0 11 -7 15 -15z m49 -55 c3 -13 0 -20 -9 -20 -8 0 -14 9 -14 20 0 11 4 20 9 20 5 0 11 -9 14 -20z m-57 -11 c3 -6 1 -16 -5 -22 -9 -9 -14 -8 -21 3 -9 15 -4 30 10 30 5 0 12 -5 16 -11z"/>
 <path d="M5185 1726 c-39 -18 -95 -53 -126 -77 -58 -46 -149 -143 -149 -159 0 -5 -12 -22 -26 -37 -55 -57 -111 -210 -135 -366 -16 -102 -6 -351 17 -427 23 -78 75 -200 85 -200 5 0 9 -5 9 -11 0 -22 41 -68 55 -62 10 3 13 1 10 -9 -13 -33 176 -191 245 -204 45 -10 37 8 -30 60 -56 43 -130 138 -145 187 -4 10 -10 19 -15 19 -4 0 -11 18 -15 40 -11 64 -40 80 -92 52 -13 -7 -23 -11 -24 -10 -6 23 -10 46 -11 58 0 8 -5 21 -11 28 -6 8 -6 12 1 12 6 0 14 -9 17 -20 5 -15 12 -19 26 -15 14 5 17 3 13 -9 -5 -12 0 -16 18 -16 35 0 37 6 22 63 -8 29 -14 74 -14 100 0 27 -5 58 -11 69 -8 14 -8 23 0 31 7 7 11 59 11 137 0 69 5 152 11 185 6 33 10 69 10 80 0 11 7 37 16 58 17 40 14 53 -13 43 -9 -3 -14 -12 -10 -21 3 -8 1 -15 -3 -15 -5 0 -12 7 -15 16 -4 9 -13 14 -21 10 -9 -3 -15 0 -15 9 0 8 12 15 28 17 18 2 27 8 26 20 -1 10 2 15 7 12 5 -3 9 -12 9 -20 0 -40 40 7 44 52 2 20 8 39 13 43 5 3 20 28 32 56 13 27 32 56 43 63 11 8 17 20 15 26 -3 7 8 21 24 30 16 9 29 23 29 29 0 7 18 20 40 30 22 9 58 25 80 35 22 9 40 23 40 30 0 21 -43 13 -115 -22z m-225 -317 c0 -5 -4 -9 -10 -9 -5 0 -10 7 -10 16 0 8 5 12 10 9 6 -3 10 -10 10 -16z m-66 -124 c-6 -16 -24 -21 -24 -7 0 11 11 22 21 22 5 0 6 -7 3 -15z m-28 -49 c0 -13 -9 -29 -18 -35 -15 -9 -18 -8 -18 10 0 17 22 45 36 49 1 0 1 -11 0 -24z m44 -6 c0 -5 -4 -10 -10 -10 -5 0 -10 5 -10 10 0 6 5 10 10 10 6 0 10 -4 10 -10z m-30 -71 c0 -6 -4 -7 -10 -4 -5 3 -10 11 -10 16 0 6 5 7 10 4 6 -3 10 -11 10 -16z m-23 -16 c-4 -3 -10 -3 -14 0 -3 4 0 7 7 7 7 0 10 -3 7 -7z m8 -83 c3 -5 -1 -10 -10 -10 -9 0 -13 5 -10 10 3 6 8 10 10 10 2 0 7 -4 10 -10z m5 -221 c0 -6 -4 -7 -10 -4 -5 3 -10 11 -10 16 0 6 5 7 10 4 6 -3 10 -11 10 -16z m-15 -59 c3 -5 2 -10 -4 -10 -5 0 -13 5 -16 10 -3 6 -2 10 4 10 5 0 13 -4 16 -10z"/>
 <path d="M5665 1741 c-5 -10 -1 -14 46 -41 70 -40 122 -104 172 -210 46 -97 55 -133 67 -259 21 -217 9 -404 -40 -609 -23 -96 -88 -237 -131 -283 -16 -17 -29 -35 -29 -39 0 -12 -68 -62 -122 -90 -48 -25 -67 -57 -28 -46 11 3 30 9 43 12 77 23 273 187 322 272 11 17 22 32 26 32 4 0 19 30 35 68 15 37 31 72 35 77 15 22 48 165 59 259 20 169 -5 362 -63 485 -32 67 -85 152 -115 183 -89 91 -129 128 -139 128 -7 0 -13 5 -13 10 0 6 -6 10 -12 10 -7 0 -26 11 -42 25 -30 26 -60 32 -71 16z m355 -462 c0 -19 -5 -29 -15 -29 -9 0 -12 6 -9 15 4 9 0 15 -10 15 -9 0 -16 8 -16 17 0 13 3 14 12 5 17 -17 31 -15 24 4 -3 8 -2 12 4 9 6 -3 10 -19 10 -36z m30 31 c0 -5 -4 -10 -10 -10 -5 0 -10 5 -10 10 0 6 5 10 10 10 6 0 10 -4 10 -10z m-15 -96 c-10 -8 -20 -12 -23 -10 -7 8 23 34 32 28 5 -3 1 -11 -9 -18z m-8 -41 c-4 -3 -10 -3 -14 0 -3 4 0 7 7 7 7 0 10 -3 7 -7z m3 -53 c13 -8 13 -10 -2 -10 -9 0 -20 5 -23 10 -8 13 5 13 25 0z m21 -44 c-9 -11 -9 -15 1 -19 9 -4 9 -6 1 -6 -19 -1 -27 20 -12 30 20 13 23 11 10 -5z m-1 -78 c0 -5 -6 -8 -14 -8 -8 0 -13 10 -13 25 0 23 1 24 13 8 7 -10 14 -21 14 -25z m-29 -35 c1 -10 1 -22 0 -26 -1 -5 8 -11 19 -14 11 -3 17 -9 14 -14 -3 -5 -10 -7 -15 -4 -5 4 -9 1 -9 -4 0 -6 6 -11 13 -12 6 0 3 -4 -8 -8 -11 -5 -22 -7 -24 -5 -8 7 -8 104 0 104 5 0 10 -8 10 -17z m-11 -123 c0 -5 -2 -10 -4 -10 -3 0 -8 5 -11 10 -3 6 -1 10 4 10 6 0 11 -4 11 -10z m0 -80 c0 -5 -7 -10 -15 -10 -8 0 -15 5 -15 10 0 6 7 10 15 10 8 0 15 -4 15 -10z m10 -60 c0 -5 -4 -10 -10 -10 -5 0 -10 5 -10 10 0 6 5 10 10 10 6 0 10 -4 10 -10z m-17 -54 c6 -16 -2 -28 -14 -20 -12 7 -11 34 0 34 5 0 11 -6 14 -14z m-20 -56 c-3 -11 -7 -20 -8 -20 -1 0 -5 9 -8 20 -3 12 0 20 8 20 8 0 11 -8 8 -20z m-91 -162 c-15 -15 -26 -4 -18 18 5 13 9 15 18 6 9 -9 9 -15 0 -24z"/>
 <path d="M3034 1681 c-36 -16 -83 -71 -89 -104 -11 -60 -13 -111 -20 -463 -7 -344 -7 -351 14 -400 21 -47 61 -84 101 -92 75 -15 121 -13 163 8 68 34 78 63 80 221 l2 134 -45 5 c-25 3 -57 3 -72 1 l-28 -3 0 -87 c0 -146 -18 -198 -55 -160 -18 18 -20 80 -11 461 7 362 14 398 64 363 19 -14 20 -22 16 -135 -2 -66 -5 -124 -6 -128 -1 -4 1 -16 5 -28 6 -18 16 -21 77 -22 l70 -2 0 157 c0 145 -2 161 -23 197 -35 62 -65 78 -149 82 -40 2 -82 0 -94 -5z m10 -437 c10 -25 -1 -29 -14 -5 -6 12 -7 21 -1 21 5 0 12 -7 15 -16z m183 -341 c-4 -3 -7 0 -7 7 0 7 3 10 7 7 3 -4 3 -10 0 -14z"/>
 <path d="M410 1534 c0 -19 -9 -104 -20 -187 -11 -84 -25 -188 -31 -232 -6 -44 -15 -104 -21 -134 -5 -29 -6 -57 -1 -61 4 -5 33 -11 63 -14 30 -3 102 -13 160 -21 58 -9 121 -18 140 -19 20 -2 59 -9 87 -16 46 -12 52 -12 71 6 17 16 21 34 23 109 l4 89 -130 13 c-188 18 -179 15 -171 71 3 25 11 51 16 56 13 13 52 -6 117 -56 67 -51 93 -43 84 29 -1 6 3 31 8 54 11 46 -1 77 -23 60 -12 -9 -128 -47 -161 -53 -18 -3 -20 3 -21 55 -1 31 1 57 5 58 36 5 63 3 68 -3 2 -5 21 -8 41 -7 20 0 60 -4 87 -11 85 -20 144 -24 150 -8 2 7 9 51 15 97 7 62 7 87 -1 92 -9 5 -133 19 -214 24 -11 0 -38 4 -60 8 -22 4 -65 9 -95 12 -30 3 -73 10 -95 15 -22 5 -52 10 -67 10 -25 0 -28 -3 -28 -36z m124 -315 c-8 -14 -24 -10 -24 6 0 9 6 12 15 9 8 -4 12 -10 9 -15z m14 -29 c-7 -11 -15 -15 -17 -9 -2 6 3 15 10 20 20 12 21 11 7 -11z"/>
 <path d="M2220 1545 c-6 -8 -9 -23 -5 -34 6 -21 19 -90 40 -229 8 -51 26 -148 40 -215 13 -67 27 -142 30 -166 3 -24 8 -47 10 -51 3 -4 37 -10 77 -14 40 -4 90 -10 110 -13 34 -5 38 -3 56 33 11 22 36 82 57 134 38 99 46 118 88 210 60 133 117 269 117 279 0 6 -8 11 -17 12 -18 1 -34 3 -83 13 -34 6 -42 0 -64 -54 -50 -121 -42 -112 -94 -106 -26 4 -75 9 -110 11 -80 6 -102 18 -103 55 -1 17 -2 33 -3 38 -1 4 -6 26 -10 50 -9 47 -9 48 -78 56 -33 4 -49 1 -58 -9z m352 -333 c3 -4 -4 -28 -17 -54 -12 -25 -38 -83 -58 -129 -35 -81 -36 -82 -46 -55 -6 15 -11 36 -11 46 0 10 -6 45 -14 77 -8 32 -17 76 -21 97 l-6 39 83 -7 c45 -4 86 -10 90 -14z m-32 -193 c0 -6 -4 -7 -10 -4 -5 3 -10 11 -10 16 0 6 5 7 10 4 6 -3 10 -11 10 -16z"/>
 <path d="M4235 1476 c-121 -67 -174 -149 -189 -295 -4 -41 17 -149 38 -188 30 -60 99 -125 164 -155 56 -27 72 -30 121 -25 31 4 73 13 93 21 112 47 201 200 136 234 -26 14 -182 32 -275 32 -35 0 -83 5 -108 12 -44 12 -45 13 -45 53 0 46 22 132 48 185 37 76 110 117 190 106 48 -7 131 -58 170 -107 28 -35 72 -40 72 -9 0 29 -87 109 -150 138 -42 20 -73 26 -132 27 -69 2 -83 -1 -133 -29z m166 -432 c100 -9 103 -11 90 -62 -30 -111 -138 -152 -238 -91 -37 23 -73 91 -73 139 l0 33 73 -6 c39 -4 106 -9 148 -13z"/>
 <path d="M3725 1478 c-5 -22 -34 -165 -60 -298 -34 -173 -55 -277 -60 -299 -7 -26 -5 -26 -137 7 -85 21 -91 19 -102 -35 -9 -39 4 -48 100 -64 74 -12 134 -24 174 -33 14 -3 45 -10 70 -15 25 -6 86 -20 135 -32 50 -11 106 -22 124 -23 33 -1 35 1 43 38 5 22 5 43 0 48 -5 5 -36 14 -68 19 -33 6 -75 13 -94 16 -19 3 -38 10 -41 15 -3 5 2 44 13 86 10 42 22 97 27 122 5 25 25 123 45 217 43 206 44 221 14 227 -13 2 -47 9 -76 15 -81 17 -101 15 -107 -11z"/>
 <path d="M2860 1465 c0 -29 15 -33 29 -6 11 20 5 31 -16 31 -7 0 -13 -11 -13 -25z"/>
 <path d="M5261 1443 c-87 -46 -96 -64 -96 -196 l0 -111 93 -1 c62 -2 95 2 97 9 2 6 6 36 8 66 3 40 0 60 -11 73 -14 16 -14 17 0 12 9 -4 19 -2 23 4 3 6 15 11 25 11 16 0 19 -9 22 -57 2 -37 7 -58 16 -59 6 -1 17 -2 22 -3 6 0 10 -6 10 -11 0 -6 -11 -8 -25 -4 -23 6 -25 3 -26 -30 -2 -53 -3 -56 -18 -65 -8 -5 -11 -17 -7 -32 3 -13 3 -18 0 -11 -6 13 -34 17 -34 5 0 -5 -15 -24 -33 -43 -93 -101 -145 -169 -157 -204 -11 -34 -16 -211 -7 -256 12 -60 47 -104 108 -135 42 -22 176 -31 225 -15 45 14 121 68 129 90 9 27 25 209 19 223 -4 10 -28 13 -102 12 l-97 -1 -1 -55 c-1 -30 -5 -61 -8 -70 -4 -9 -6 -22 -4 -28 2 -7 -7 -17 -19 -21 -25 -10 -30 0 -34 65 -5 111 -1 130 42 179 24 27 39 52 35 61 -3 8 -2 23 1 33 6 15 8 14 13 -6 5 -21 8 -19 52 25 99 101 109 117 120 195 13 96 5 236 -15 273 -22 39 -42 65 -52 65 -5 0 -17 8 -27 17 -14 13 -43 17 -126 20 -102 4 -109 3 -161 -24z m-5 -68 c-8 -8 -17 -15 -20 -15 -3 0 -3 7 0 15 4 8 13 15 21 15 12 0 12 -2 -1 -15z m175 6 c-7 -5 -10 -14 -7 -20 4 -6 3 -11 -2 -11 -12 0 -23 26 -15 34 4 3 13 6 22 6 13 0 13 -2 2 -9z m-121 -37 c0 -14 -3 -14 -15 -4 -8 7 -15 14 -15 16 0 2 7 4 15 4 8 0 15 -7 15 -16z m-84 -91 c-10 -10 -19 5 -10 18 6 11 8 11 12 0 2 -7 1 -15 -2 -18z m354 12 c0 -8 -7 -15 -15 -15 -9 0 -12 6 -9 15 4 8 10 15 15 15 5 0 9 -7 9 -15z m-320 -35 c13 -8 12 -10 -4 -10 -14 0 -16 -3 -7 -13 6 -8 8 -17 4 -20 -13 -13 -19 -7 -21 23 -2 32 3 36 28 20z m301 -22 c7 -12 4 -14 -16 -10 -15 2 -25 0 -25 -7 0 -6 -7 -11 -15 -11 -17 0 -20 16 -5 25 6 4 8 10 6 13 -2 4 7 7 21 6 14 0 29 -7 34 -16z m-93 -143 c-2 -1 -14 -6 -28 -9 -21 -6 -23 -5 -9 6 8 7 19 22 24 33 8 19 9 19 13 -3 2 -13 2 -25 0 -27z m87 -53 c-10 -10 -16 -12 -13 -7 3 6 8 19 13 30 5 14 9 16 12 7 3 -8 -3 -21 -12 -30z m-61 -8 c4 -9 0 -24 -9 -34 -8 -9 -15 -23 -15 -31 0 -8 -11 -15 -25 -15 -30 -2 -33 12 -5 21 14 4 20 15 20 34 0 41 22 57 34 25z m-154 -94 c0 -5 -5 -10 -11 -10 -5 0 -7 5 -4 10 3 6 8 10 11 10 2 0 4 -4 4 -10z m37 -37 c-4 -3 -7 0 -7 7 0 7 3 10 7 7 3 -4 3 -10 0 -14z m-4 -67 c4 -10 1 -13 -8 -9 -8 3 -12 9 -9 14 7 12 11 11 17 -5z m-100 -199 c-3 -4 1 -14 7 -22 13 -16 3 -20 -18 -7 -9 6 -10 16 -4 33 6 14 5 35 0 52 -6 15 -7 40 -2 55 6 22 9 16 15 -38 4 -36 5 -69 2 -73z m-41 -9 c-6 -6 -15 -8 -19 -4 -4 4 -1 11 7 16 12 8 11 13 -6 37 -15 20 -18 31 -10 39 8 9 15 0 25 -32 11 -34 12 -47 3 -56z m292 57 c-6 -37 -14 -45 -14 -15 0 12 -8 29 -17 35 -16 12 -15 13 9 12 25 -2 27 -5 22 -32z m-51 -22 c-5 -11 -8 -12 -13 -2 -5 7 -6 19 -3 26 5 11 8 12 13 2 5 -7 6 -19 3 -26z m36 -57 c-11 -23 -29 -36 -29 -20 0 8 34 53 38 49 1 -1 -3 -14 -9 -29z m-42 -3 c-4 -3 -7 0 -7 7 0 7 3 10 7 7 3 -4 3 -10 0 -14z m103 -18 c0 -8 -7 -15 -15 -15 -8 0 -15 7 -15 15 0 8 7 15 15 15 8 0 15 -7 15 -15z m-83 -50 c-2 -28 -4 -29 -31 -19 -17 7 -17 8 5 25 13 10 25 19 26 19 1 0 1 -11 0 -25z m-141 -22 c-11 -11 -19 6 -11 24 8 17 8 17 12 0 3 -10 2 -21 -1 -24z m-31 -12 c-8 -13 -35 -15 -35 -2 0 5 8 11 18 13 21 5 26 2 17 -11z"/>
 </g>
<g id="layer2" fill="#fefefd" stroke="none">
 <path d="M0 1030 l0 -1030 3230 0 3230 0 0 1030 0 1030 -3230 0 -3230 0 0 -1030z m1200 773 c22 -6 41 -6 51 0 9 6 24 7 34 3 15 -5 16 -15 11 -74 -4 -37 -6 -92 -6 -124 1 -31 -3 -59 -8 -62 -5 -3 -8 -18 -5 -33 7 -54 6 -180 -2 -193 -5 -8 -8 -34 -7 -59 1 -25 -2 -52 -7 -60 -5 -8 -3 -23 5 -40 8 -16 10 -27 4 -29 -6 -2 -10 -24 -10 -48 0 -26 -5 -44 -11 -44 -8 0 -8 -5 1 -15 8 -10 11 -31 7 -60 -4 -24 -2 -47 3 -50 11 -7 27 48 40 139 6 38 13 78 16 90 2 12 7 37 9 56 5 43 9 64 29 160 9 41 17 84 19 95 2 11 7 27 10 35 4 8 20 77 36 153 17 76 33 143 37 149 8 13 284 2 298 -12 10 -10 10 -129 2 -680 -6 -386 -16 -516 -40 -532 -11 -7 -185 0 -198 8 -10 6 0 203 12 250 4 17 4 38 -1 47 -6 9 -5 18 0 22 6 3 8 22 5 41 -2 20 1 64 7 97 6 34 10 80 9 102 -9 130 0 246 21 271 7 9 8 14 1 14 -5 0 -12 10 -15 22 -5 17 -9 19 -20 10 -9 -8 -17 -42 -21 -90 -3 -42 -11 -93 -16 -112 -6 -19 -10 -53 -10 -75 0 -22 -5 -47 -10 -55 -9 -13 -11 -13 -20 0 -13 19 -13 8 0 -24 10 -28 -20 -210 -42 -253 -6 -13 -9 -26 -5 -29 3 -3 0 -23 -8 -43 -8 -20 -16 -54 -19 -76 -6 -55 -17 -98 -28 -112 -7 -9 -46 -11 -146 -7 -76 3 -143 7 -150 9 -18 6 -9 254 10 266 10 7 10 9 1 9 -10 0 -13 35 -13 140 0 120 2 140 17 148 16 9 16 12 0 36 -13 20 -16 39 -12 74 5 42 17 404 15 442 -8 118 7 131 120 103z m4100 -55 c0 -7 -18 -21 -40 -30 -22 -10 -58 -26 -80 -35 -22 -10 -40 -23 -40 -30 0 -6 -13 -20 -29 -29 -16 -9 -27 -23 -24 -30 2 -6 -4 -18 -15 -26 -11 -7 -30 -36 -43 -63 -12 -28 -27 -53 -32 -56 -5 -4 -11 -23 -13 -43 -4 -45 -44 -92 -44 -52 0 8 -4 17 -9 20 -5 3 -8 -2 -7 -12 1 -12 -8 -18 -26 -20 -16 -2 -28 -9 -28 -17 0 -9 6 -12 15 -9 8 4 17 -1 21 -10 3 -9 10 -16 15 -16 4 0 6 7 3 15 -4 9 1 18 10 21 27 10 30 -3 13 -43 -9 -21 -16 -47 -16 -58 0 -11 -4 -47 -10 -80 -6 -33 -11 -116 -11 -185 0 -78 -4 -130 -11 -137 -8 -8 -8 -17 0 -31 6 -11 11 -42 11 -69 0 -26 6 -71 14 -100 15 -57 13 -63 -22 -63 -18 0 -23 4 -18 16 4 12 1 14 -13 9 -14 -4 -21 0 -26 15 -3 11 -11 20 -17 20 -7 0 -7 -4 -1 -12 6 -7 11 -20 11 -28 1 -12 5 -35 11 -58 1 -1 11 3 24 10 52 28 81 12 92 -52 4 -22 11 -40 15 -40 5 0 11 -9 15 -19 15 -49 89 -144 145 -187 67 -52 75 -70 30 -60 -69 13 -258 171 -245 204 3 10 0 12 -10 9 -14 -6 -55 40 -55 62 0 6 -4 11 -9 11 -10 0 -62 122 -85 200 -23 76 -33 325 -17 427 24 156 80 309 135 366 14 15 26 32 26 37 0 16 91 113 149 159 97 76 241 135 241 99z m436 -23 c16 -14 35 -25 42 -25 6 0 12 -4 12 -10 0 -5 6 -10 13 -10 10 0 50 -37 139 -128 30 -31 83 -116 115 -183 58 -123 83 -316 63 -485 -11 -94 -44 -237 -59 -259 -4 -5 -20 -40 -35 -77 -16 -38 -31 -68 -35 -68 -4 0 -15 -15 -26 -32 -49 -85 -245 -249 -322 -272 -13 -3 -32 -9 -43 -12 -39 -11 -20 21 28 46 54 28 122 78 122 90 0 4 13 22 29 39 43 46 108 187 131 283 49 205 61 392 40 609 -12 126 -21 162 -67 259 -50 106 -102 170 -172 210 -47 27 -51 31 -46 41 11 16 41 10 71 -16z m-2508 -62 c15 -11 37 -37 49 -59 21 -36 23 -52 23 -197 l0 -157 -70 2 c-61 1 -71 4 -77 22 -4 12 -6 24 -5 28 1 4 4 62 6 128 4 113 3 121 -16 135 -50 35 -57 -1 -64 -363 -9 -381 -7 -443 11 -461 37 -38 55 14 55 160 l0 87 28 3 c15 2 47 2 72 -1 l45 -5 -2 -134 c-2 -158 -12 -187 -80 -221 -42 -21 -88 -23 -163 -8 -40 8 -80 45 -101 92 -21 49 -21 56 -14 400 9 473 10 480 57 527 44 44 63 49 146 45 53 -2 81 -8 100 -23z m-2723 -103 c22 -5 65 -12 95 -15 30 -3 73 -8 95 -12 22 -4 49 -8 60 -8 81 -5 205 -19 214 -24 8 -5 8 -30 1 -92 -6 -46 -13 -90 -15 -97 -6 -16 -65 -12 -150 8 -27 7 -67 11 -87 11 -20 -1 -39 2 -41 7 -5 6 -32 8 -68 3 -4 -1 -6 -27 -5 -58 1 -52 3 -58 21 -55 33 6 149 44 161 53 22 17 34 -14 23 -60 -5 -23 -9 -48 -8 -54 9 -72 -17 -80 -84 -29 -65 50 -104 69 -117 56 -5 -5 -13 -31 -16 -56 -8 -56 -17 -53 171 -71 l130 -13 -4 -89 c-2 -75 -6 -93 -23 -109 -19 -18 -25 -18 -71 -6 -28 7 -67 14 -87 16 -19 1 -82 10 -140 19 -58 8 -130 18 -160 21 -30 3 -59 9 -63 14 -5 4 -4 32 1 61 6 30 15 90 21 134 6 44 20 148 31 232 11 83 20 168 20 187 0 33 3 36 28 36 15 0 45 -5 67 -10z m1832 -15 c6 -2 15 -23 19 -47 4 -24 9 -46 10 -50 1 -5 2 -21 3 -38 1 -37 23 -49 103 -55 35 -2 84 -7 110 -11 52 -6 44 -15 94 106 22 54 30 60 64 54 49 -10 65 -12 83 -13 9 -1 17 -6 17 -12 0 -10 -57 -146 -117 -279 -42 -92 -50 -111 -88 -210 -21 -52 -46 -112 -57 -134 -18 -36 -22 -38 -56 -33 -20 3 -70 9 -110 13 -40 4 -74 10 -77 14 -2 4 -7 27 -10 51 -3 24 -17 99 -30 166 -14 67 -32 164 -40 215 -21 139 -34 208 -40 229 -11 34 12 49 63 43 26 -3 52 -7 59 -9z m2163 -67 c63 -29 150 -109 150 -138 0 -31 -44 -26 -72 9 -39 49 -122 100 -170 107 -80 11 -153 -30 -190 -106 -26 -53 -48 -139 -48 -185 0 -40 1 -41 45 -53 25 -7 73 -12 108 -12 93 0 249 -18 275 -32 65 -34 -24 -187 -136 -234 -20 -8 -62 -17 -93 -21 -49 -5 -65 -2 -121 25 -65 30 -134 95 -164 155 -21 39 -42 147 -38 188 15 146 68 228 189 295 50 28 64 31 133 29 59 -1 90 -7 132 -27z m-668 11 c29 -6 63 -13 76 -15 30 -6 29 -21 -14 -227 -20 -94 -40 -192 -45 -217 -5 -25 -17 -80 -27 -122 -11 -42 -16 -81 -13 -86 3 -5 22 -12 41 -15 19 -3 61 -10 94 -16 32 -5 63 -14 68 -19 5 -5 5 -26 0 -48 -8 -37 -10 -39 -43 -38 -18 1 -74 12 -124 23 -49 12 -110 26 -135 32 -25 5 -56 12 -70 15 -40 9 -100 21 -174 33 -96 16 -109 25 -100 64 11 54 17 56 102 35 132 -33 130 -33 137 -7 5 22 26 126 60 299 26 133 55 276 60 298 6 26 26 28 107 11z m-939 -5 c8 -9 -11 -44 -23 -44 -6 0 -10 11 -10 25 0 23 18 34 33 19z m2655 -37 c10 -9 22 -17 27 -17 10 0 30 -26 52 -65 20 -37 28 -177 15 -273 -11 -78 -21 -94 -120 -195 -44 -44 -47 -46 -52 -25 -5 20 -7 21 -13 6 -3 -10 -4 -25 -1 -33 4 -9 -11 -34 -35 -61 -43 -49 -47 -68 -42 -179 4 -65 9 -75 34 -65 12 4 21 14 19 21 -2 6 0 19 4 28 3 9 7 40 8 70 l1 55 97 1 c74 1 98 -2 102 -12 6 -14 -10 -196 -19 -223 -8 -22 -84 -76 -129 -90 -49 -16 -183 -7 -225 15 -61 31 -96 75 -108 135 -9 45 -4 222 7 256 12 35 64 103 157 204 18 19 33 38 33 43 0 12 28 8 34 -5 3 -7 3 -2 0 11 -4 15 -1 27 7 32 15 9 16 12 18 65 1 33 3 36 26 30 14 -4 25 -2 25 4 0 5 -4 11 -10 11 -5 1 -16 2 -22 3 -9 1 -14 22 -16 59 -3 48 -6 57 -22 57 -10 0 -22 -5 -25 -11 -4 -6 -14 -8 -23 -4 -14 5 -14 4 0 -12 11 -13 14 -33 11 -73 -2 -30 -6 -60 -8 -66 -2 -7 -35 -11 -97 -9 l-93 1 0 111 c0 132 9 150 96 196 52 27 59 28 161 24 83 -3 112 -7 126 -20z"/>
 <path d="M1600 1687 c0 -7 -7 -22 -15 -33 -12 -15 -16 -16 -23 -6 -7 11 -10 9 -15 -7 -5 -22 8 -40 15 -19 2 6 9 8 16 4 8 -4 8 -14 2 -31 -5 -14 -6 -25 -1 -25 8 0 18 36 27 98 2 17 2 32 -1 32 -3 0 -5 -6 -5 -13z"/>
 <path d="M1170 1660 c0 -5 7 -10 16 -10 8 0 12 5 9 10 -3 6 -10 10 -16 10 -5 0 -9 -4 -9 -10z"/>
 <path d="M1700 1610 c0 -7 3 -10 7 -7 3 4 3 10 0 14 -4 3 -7 0 -7 -7z"/>
 <path d="M1663 1593 c4 -3 10 -3 14 0 3 4 0 7 -7 7 -7 0 -10 -3 -7 -7z"/>
 <path d="M1630 1490 c6 -11 7 -20 3 -20 -4 0 5 -7 21 -15 33 -17 45 -14 23 6 -13 12 -13 16 1 33 16 18 16 18 -8 6 -17 -9 -25 -10 -28 -1 -2 6 -8 11 -13 11 -6 0 -5 -8 1 -20z"/>
 <path d="M1533 1483 c4 -3 10 -3 14 0 3 4 0 7 -7 7 -7 0 -10 -3 -7 -7z"/>
 <path d="M1630 1440 c0 -5 5 -10 11 -10 5 0 7 5 4 10 -3 6 -8 10 -11 10 -2 0 -4 -4 -4 -10z"/>
 <path d="M1440 1270 c0 -5 5 -10 10 -10 6 0 10 5 10 10 0 6 -4 10 -10 10 -5 0 -10 -4 -10 -10z"/>
 <path d="M1144 1251 c5 -8 56 -3 56 5 0 2 -14 4 -31 4 -16 0 -28 -4 -25 -9z"/>
 <path d="M1438 1228 c-4 -10 -14 -18 -23 -18 -10 0 -15 -10 -15 -31 l0 -32 21 27 c15 19 24 24 29 16 5 -9 9 -9 14 -1 4 6 3 11 -3 11 -5 0 -11 10 -13 23 -3 19 -4 20 -10 5z"/>
 <path d="M1165 1220 c-4 -7 -1 -18 7 -26 13 -13 15 -12 13 5 -2 26 -11 36 -20 21z"/>
 <path d="M1615 1200 c-3 -5 -1 -10 4 -10 6 0 11 5 11 10 0 6 -2 10 -4 10 -3 0 -8 -4 -11 -10z"/>
 <path d="M1170 1140 c0 -19 3 -21 12 -12 9 9 9 15 0 24 -9 9 -12 7 -12 -12z"/>
 <path d="M1220 1151 c0 -5 5 -13 10 -16 6 -3 10 -2 10 4 0 5 -4 13 -10 16 -5 3 -10 2 -10 -4z"/>
 <path d="M1675 1150 c3 -5 11 -10 16 -10 6 0 7 5 4 10 -3 6 -11 10 -16 10 -6 0 -7 -4 -4 -10z"/>
 <path d="M1654 1017 c1 -18 6 -23 19 -19 17 4 17 6 1 23 -22 24 -22 24 -20 -4z"/>
 <path d="M1590 985 c0 -8 7 -15 15 -15 9 0 12 6 9 15 -4 8 -10 15 -15 15 -5 0 -9 -7 -9 -15z"/>
 <path d="M1640 930 c0 -11 6 -20 14 -20 9 0 12 7 9 20 -3 11 -9 20 -14 20 -5 0 -9 -9 -9 -20z"/>
 <path d="M1576 922 c-2 -4 -1 -14 4 -22 7 -11 12 -12 21 -3 6 6 8 16 5 22 -8 13 -23 14 -30 3z"/>
 <path d="M4940 1416 c0 -9 5 -16 10 -16 6 0 10 4 10 9 0 6 -4 13 -10 16 -5 3 -10 -1 -10 -9z"/>
 <path d="M4877 1293 c-10 -9 -9 -23 2 -23 5 0 11 7 15 15 5 15 -5 20 -17 8z"/>
 <path d="M4848 1246 c-10 -7 -18 -23 -18 -35 0 -18 3 -19 18 -10 9 6 18 22 18 35 1 13 1 24 0 24 0 0 -9 -7 -18 -14z"/>
 <path d="M4890 1230 c0 -5 5 -10 10 -10 6 0 10 5 10 10 0 6 -4 10 -10 10 -5 0 -10 -4 -10 -10z"/>
 <path d="M4860 1171 c0 -5 5 -13 10 -16 6 -3 10 -2 10 4 0 5 -4 13 -10 16 -5 3 -10 2 -10 -4z"/>
 <path d="M4843 1143 c4 -3 10 -3 14 0 3 4 0 7 -7 7 -7 0 -10 -3 -7 -7z"/>
 <path d="M4845 1060 c-3 -5 1 -10 10 -10 9 0 13 5 10 10 -3 6 -8 10 -10 10 -2 0 -7 -4 -10 -10z"/>
 <path d="M4850 851 c0 -5 5 -13 10 -16 6 -3 10 -2 10 4 0 5 -4 13 -10 16 -5 3 -10 2 -10 -4z"/>
 <path d="M4835 780 c3 -5 11 -10 16 -10 6 0 7 5 4 10 -3 6 -11 10 -16 10 -6 0 -7 -4 -4 -10z"/>
 <path d="M6006 1306 c7 -19 -7 -21 -24 -4 -9 9 -12 8 -12 -5 0 -9 7 -17 16 -17 10 0 14 -6 10 -15 -3 -9 0 -15 9 -15 17 0 21 55 5 65 -6 3 -7 -1 -4 -9z"/>
 <path d="M6030 1310 c0 -5 5 -10 10 -10 6 0 10 5 10 10 0 6 -4 10 -10 10 -5 0 -10 -4 -10 -10z"/>
 <path d="M6021 1223 c-18 -19 -9 -26 14 -9 10 7 14 15 9 18 -5 3 -15 -1 -23 -9z"/>
 <path d="M6013 1173 c4 -3 10 -3 14 0 3 4 0 7 -7 7 -7 0 -10 -3 -7 -7z"/>
 <path d="M6005 1120 c3 -5 14 -10 23 -10 15 0 15 2 2 10 -20 13 -33 13 -25 0z"/>
 <path d="M6041 1081 c-15 -10 -7 -31 12 -30 8 0 8 2 -1 6 -10 4 -10 8 -1 19 13 16 10 18 -10 5z"/>
 <path d="M6023 1015 c0 -15 5 -25 13 -25 17 0 17 10 0 33 -12 16 -13 15 -13 -8z"/>
 <path d="M6005 930 c3 -59 3 -60 30 -49 11 4 14 8 8 8 -7 1 -13 6 -13 12 0 5 4 8 9 4 5 -3 12 -1 15 4 3 5 -3 11 -14 14 -11 3 -20 9 -19 14 3 20 -2 43 -10 43 -4 0 -7 -23 -6 -50z"/>
 <path d="M5995 840 c3 -5 8 -10 11 -10 2 0 4 5 4 10 0 6 -5 10 -11 10 -5 0 -7 -4 -4 -10z"/>
 <path d="M5980 760 c0 -5 7 -10 15 -10 8 0 15 5 15 10 0 6 -7 10 -15 10 -8 0 -15 -4 -15 -10z"/>
 <path d="M6000 700 c0 -5 5 -10 10 -10 6 0 10 5 10 10 0 6 -4 10 -10 10 -5 0 -10 -4 -10 -10z"/>
 <path d="M5980 646 c0 -17 14 -29 23 -20 8 8 -3 34 -14 34 -5 0 -9 -6 -9 -14z"/>
 <path d="M5967 590 c3 -11 7 -20 8 -20 1 0 5 9 8 20 3 12 0 20 -8 20 -8 0 -11 -8 -8 -20z"/>
 <path d="M5874 446 c-8 -22 3 -33 18 -18 9 9 9 15 0 24 -9 9 -13 7 -18 -6z"/>
 <path d="M3030 1239 c7 -11 14 -19 16 -16 7 7 -7 37 -17 37 -6 0 -5 -9 1 -21z"/>
 <path d="M3220 910 c0 -7 3 -10 7 -7 3 4 3 10 0 14 -4 3 -7 0 -7 -7z"/>
 <path d="M510 1225 c0 -16 16 -20 24 -6 3 5 -1 11 -9 15 -9 3 -15 0 -15 -9z"/>
 <path d="M541 1201 c-7 -5 -12 -14 -10 -20 2 -6 10 -2 17 9 14 22 13 23 -7 11z"/>
 <path d="M2405 1194 c4 -21 13 -65 21 -97 8 -32 14 -67 14 -77 0 -10 5 -31 11 -46 10 -27 11 -26 46 55 20 46 46 104 58 129 13 26 20 50 17 54 -4 4 -45 10 -90 14 l-83 7 6 -39z"/>
 <path d="M2520 1031 c0 -5 5 -13 10 -16 6 -3 10 -2 10 4 0 5 -4 13 -10 16 -5 3 -10 2 -10 -4z"/>
 <path d="M4180 1030 c0 -48 36 -116 73 -139 100 -61 208 -20 238 91 13 51 10 53 -90 62 -42 4 -109 9 -148 13 l-73 6 0 -33z"/>
 <path d="M5236 1375 c-3 -8 -3 -15 0 -15 3 0 12 7 20 15 13 13 13 15 1 15 -8 0 -17 -7 -21 -15z"/>
 <path d="M5407 1384 c-8 -8 3 -34 15 -34 5 0 6 5 2 11 -3 6 0 15 7 20 11 7 11 9 -2 9 -9 0 -18 -3 -22 -6z"/>
 <path d="M5280 1356 c0 -2 7 -9 15 -16 12 -10 15 -10 15 4 0 9 -7 16 -15 16 -8 0 -15 -2 -15 -4z"/>
 <path d="M5216 1271 c-4 -7 -5 -15 -2 -18 9 -9 19 4 14 18 -4 11 -6 11 -12 0z"/>
 <path d="M5556 1265 c-3 -9 0 -15 9 -15 8 0 15 7 15 15 0 8 -4 15 -9 15 -5 0 -11 -7 -15 -15z"/>
 <path d="M5232 1210 c2 -30 8 -36 21 -23 4 3 2 12 -4 20 -9 10 -7 13 7 13 16 0 17 2 4 10 -25 16 -30 12 -28 -20z"/>
 <path d="M5506 1218 c2 -3 0 -9 -6 -13 -15 -9 -12 -25 5 -25 8 0 15 5 15 11 0 7 10 9 25 7 20 -4 23 -2 16 10 -5 9 -20 16 -34 16 -14 1 -23 -2 -21 -6z"/>
 <path d="M5455 1095 c-5 -11 -16 -26 -24 -33 -14 -11 -12 -12 9 -6 32 8 32 8 28 36 -4 22 -5 22 -13 3z"/>
 <path d="M5555 1035 c-5 -11 -10 -24 -13 -30 -3 -5 3 -3 13 7 9 9 15 22 12 30 -3 9 -7 7 -12 -7z"/>
 <path d="M5467 1013 c-4 -3 -7 -19 -7 -34 0 -19 -6 -30 -20 -34 -28 -9 -25 -23 5 -21 14 0 25 7 25 15 0 8 7 22 15 31 22 24 4 65 -18 43z"/>
 <path d="M5325 910 c-3 -5 -1 -10 4 -10 6 0 11 5 11 10 0 6 -2 10 -4 10 -3 0 -8 -4 -11 -10z"/>
 <path d="M5370 880 c0 -7 3 -10 7 -7 3 4 3 10 0 14 -4 3 -7 0 -7 -7z"/>
 <path d="M5356 811 c-3 -5 1 -11 9 -14 9 -4 12 -1 8 9 -6 16 -10 17 -17 5z"/>
 <path d="M5256 718 c-5 -15 -4 -40 2 -55 5 -17 6 -38 0 -52 -6 -17 -5 -27 4 -33 21 -13 31 -9 18 7 -6 8 -10 18 -7 22 3 4 2 37 -2 73 -6 54 -9 60 -15 38z"/>
 <path d="M5204 686 c-8 -8 -5 -19 10 -39 17 -24 18 -29 6 -37 -8 -5 -11 -12 -7 -16 4 -4 13 -2 19 4 9 9 8 22 -3 56 -10 32 -17 41 -25 32z"/>
 <path d="M5493 675 c9 -6 17 -23 17 -35 0 -30 8 -22 14 15 5 27 3 30 -22 32 -24 1 -25 0 -9 -12z"/>
 <path d="M5457 657 c-3 -7 -2 -19 3 -26 5 -10 8 -9 13 2 3 7 2 19 -3 26 -5 10 -8 9 -13 -2z"/>
 <path d="M5498 585 c-20 -26 -22 -35 -10 -35 9 0 35 50 30 55 -2 2 -11 -7 -20 -20z"/>
 <path d="M5460 580 c0 -7 3 -10 7 -7 3 4 3 10 0 14 -4 3 -7 0 -7 -7z"/>
 <path d="M5540 555 c0 -8 7 -15 15 -15 8 0 15 7 15 15 0 8 -7 15 -15 15 -8 0 -15 -7 -15 -15z"/>
 <path d="M5461 511 c-22 -17 -22 -18 -5 -25 27 -10 29 -9 31 19 1 14 1 25 0 25 -1 0 -13 -9 -26 -19z"/>
 <path d="M5335 507 c-4 -10 -5 -21 -1 -24 10 -10 18 4 13 24 -4 17 -4 17 -12 0z"/>
 <path d="M5298 482 c-10 -2 -18 -8 -18 -13 0 -13 27 -11 35 2 9 13 4 16 -17 11z"/>
 </g>

</svg>