<?xml version="1.0" encoding="UTF-8" standalone="no"?>
<svg width="1148px" height="328px" viewBox="0 0 1148 328" version="1.1" xmlns="http://www.w3.org/2000/svg" xmlns:xlink="http://www.w3.org/1999/xlink">
    <!-- Generator: Sketch 40.1 (33804) - http://www.bohemiancoding.com/sketch -->
    <title>Logo SVG</title>
    <desc>Created with Sketch.</desc>
    <defs></defs>
    <g id="Page-1" stroke="none" stroke-width="1" fill="none" fill-rule="evenodd">
        <g id="logo" fill="#4A4A4A">
            <g id="Group">
                <path d="M151.362229,326.217499 C148.390093,323.83995 147.201238,316.905429 147.993808,304.819551 C148.390093,297.290644 146.012384,225.567892 145.021672,217.246468 C144.229102,210.311948 144.823529,206.547494 147.399381,202.584911 C150.569659,197.829812 150.569659,197.235424 147.399381,195.452262 C144.427245,193.867229 144.03096,189.904646 144.03096,166.129148 C144.03096,145.325587 144.625387,138.391067 146.606811,138.391067 C148.390093,138.391067 148.390093,137.994809 146.408669,136.607905 C142.643963,134.230355 140.860681,85.0943264 144.427245,83.9055515 C145.814241,83.5092932 159.089783,82.7167766 174.148607,82.1223892 C193.962848,81.3298726 201.690402,81.7261309 203.077399,83.5092932 C205.256966,86.2831013 207.436533,94.8026546 208.625387,105.699758 C209.219814,110.058599 210.804954,116.79499 212.390093,120.757573 C213.975232,124.720156 214.569659,128.682739 213.975232,129.277126 C213.182663,129.871514 213.77709,132.447193 214.965944,135.022872 C219.325077,143.542425 225.26935,179.60193 223.287926,185.149546 C220.712074,191.489679 220.712074,193.669099 223.287926,189.904646 C225.071207,187.328967 225.467492,187.328967 227.250774,189.904646 C228.241486,191.489679 229.232198,196.442908 229.232198,200.801749 C229.232198,205.16059 230.024768,211.896981 231.213622,215.661435 C232.204334,219.425889 233.789474,229.530475 234.383901,237.851899 C235.176471,247.362099 236.76161,254.09849 238.544892,255.683523 C240.724458,257.466685 241.517028,257.070427 242.50774,253.702231 C243.102167,251.324681 244.489164,249.34339 245.479876,249.34339 C246.866873,249.34339 246.668731,248.352744 245.281734,246.569582 C241.120743,241.616353 239.337461,218.633372 241.120743,192.876583 C241.318885,188.517742 240.526316,179.403801 239.337461,172.66741 C238.148607,166.129148 237.55418,157.411465 237.950464,153.448882 C238.544892,149.684429 238.148607,145.919975 236.959752,145.325587 C235.96904,144.533071 235.770898,142.749908 236.959752,140.966746 C237.950464,139.183584 237.950464,135.022872 237.157895,131.654676 C234.780186,122.342606 232.798762,83.3111641 234.780186,82.1223892 C237.356037,80.537356 271.832817,79.150452 274.012384,80.537356 C278.767802,83.7074224 280.749226,109.464212 281.93808,185.942063 C283.52322,295.111223 283.52322,318.688592 281.541796,320.669883 C278.767802,323.443691 224.080495,325.623112 222.495356,323.047433 C221.702786,321.858658 218.532508,308.584005 215.164087,293.52619 C211.993808,278.468375 208.823529,264.797464 208.03096,263.21243 C207.436533,261.627397 206.44582,258.457331 206.049536,256.27791 C205.653251,254.09849 204.068111,245.578936 202.28483,237.455641 C198.321981,218.435243 197.529412,214.274531 196.5387,205.754977 C196.142415,201.990524 195.151703,197.037295 194.755418,194.659745 C194.160991,192.282195 192.773994,184.357029 191.585139,176.828122 C189.009288,158.798369 185.839009,147.901266 183.659443,149.28817 C182.668731,149.882558 182.272446,154.439528 183.065015,159.194628 C183.857585,164.940373 183.263158,169.101085 181.678019,171.082377 C179.894737,173.063668 179.894737,174.054314 181.479876,174.054314 C182.668731,174.054314 183.659443,177.620638 183.659443,182.771996 C183.659443,187.527096 184.452012,191.885937 185.640867,192.282195 C186.829721,192.678454 186.433437,194.857874 184.848297,198.027941 C183.263158,201.396136 182.866873,204.368073 183.857585,205.953107 C184.848297,207.53814 185.442724,212.887627 185.244582,217.840855 C185.04644,222.794084 185.640867,227.945442 186.631579,229.530475 C188.216718,232.106154 188.414861,257.070427 187.027864,267.769401 C186.433437,270.741338 187.027864,273.713275 188.018576,274.307663 C189.009288,274.90205 189.801858,280.449666 189.603715,286.59167 C189.603715,292.931803 190,303.828906 190.79257,311.159684 C191.783282,322.849304 191.585139,324.830595 188.613003,325.821241 C186.631579,326.613758 183.659443,326.415629 181.876161,325.226854 C179.894737,324.038079 176.130031,324.038079 171.770898,325.226854 C157.900929,328.595049 154.928793,328.793178 151.362229,326.217499 L151.362229,326.217499 Z M252.216718,298.479419 C250.433437,286.195411 248.452012,279.062762 246.866873,279.062762 C245.876161,279.062762 246.074303,281.242183 247.065015,284.015991 C248.25387,287.384186 248.25387,289.365478 246.668731,290.157994 C245.281734,290.950511 243.894737,290.554253 243.498452,289.365478 C242.111455,285.204766 239.535604,288.77109 240.526316,293.129932 C241.517028,296.299998 242.111455,296.696256 243.498452,294.516836 C244.885449,292.535544 245.678019,292.733673 248.055728,295.705611 C249.640867,297.885031 251.027864,300.856968 251.027864,302.243872 C251.027864,303.630777 251.424149,304.819551 252.018576,304.819551 C252.613003,304.819551 252.613003,301.847614 252.216718,298.479419 L252.216718,298.479419 Z M170.780186,296.894385 C171.374613,295.90374 170.582043,294.913094 168.996904,294.913094 C167.213622,294.913094 165.826625,295.90374 165.826625,296.894385 C165.826625,298.08316 166.619195,298.875677 167.609907,298.875677 C168.798762,298.875677 170.185759,298.08316 170.780186,296.894385 L170.780186,296.894385 Z M272.229102,285.601024 C271.436533,285.006637 270.842105,285.601024 270.842105,286.987928 C270.842105,288.374832 271.436533,288.96922 272.229102,288.374832 C272.823529,287.582316 272.823529,286.393541 272.229102,285.601024 L272.229102,285.601024 Z M266.28483,283.619733 C265.49226,283.025345 264.303406,283.025345 263.510836,283.619733 C262.916409,284.412249 263.510836,285.006637 264.897833,285.006637 C266.28483,285.006637 266.879257,284.412249 266.28483,283.619733 L266.28483,283.619733 Z M259.349845,264.995593 C259.944272,263.21243 261.529412,263.410559 264.897833,265.193722 C269.653251,267.571272 269.653251,267.571272 266.482972,264.004947 C263.708978,260.636751 263.708978,259.844235 266.28483,257.466685 C270.643963,253.504102 268.266254,252.909715 261.727554,256.27791 C258.557276,257.862943 256.773994,259.249847 257.566563,259.249847 C258.359133,259.249847 258.160991,261.03301 256.972136,263.21243 C255.783282,265.58998 255.585139,267.175013 256.773994,267.175013 C257.764706,267.175013 258.95356,266.184368 259.349845,264.995593 L259.349845,264.995593 Z M240.526316,261.825526 C239.733746,261.231139 238.544892,261.231139 237.752322,261.825526 C237.157895,262.618043 237.752322,263.21243 239.139319,263.21243 C240.526316,263.21243 241.120743,262.618043 240.526316,261.825526 L240.526316,261.825526 Z M259.944272,253.305973 C260.5387,252.315327 260.142415,251.324681 259.151703,251.324681 C257.962848,251.324681 256.972136,252.315327 256.972136,253.305973 C256.972136,254.494748 257.368421,255.287264 257.764706,255.287264 C258.359133,255.287264 259.349845,254.494748 259.944272,253.305973 L259.944272,253.305973 Z M223.287926,219.624018 C223.287926,218.633372 222.495356,217.642726 221.306502,217.642726 C220.315789,217.642726 219.325077,218.633372 219.325077,219.624018 C219.325077,220.812793 220.315789,221.605309 221.306502,221.605309 C222.495356,221.605309 223.287926,220.812793 223.287926,219.624018 L223.287926,219.624018 Z M171.770898,216.85021 C171.770898,215.265177 161.665635,214.274531 160.674923,215.859564 C160.080495,216.85021 162.458204,217.642726 165.628483,217.642726 C168.996904,217.642726 171.770898,217.246468 171.770898,216.85021 L171.770898,216.85021 Z M223.486068,205.754977 C224.674923,205.754977 224.873065,204.764332 224.080495,203.575557 C223.089783,201.990524 222.297214,201.990524 221.306502,203.773686 C220.315789,205.358719 218.532508,204.368073 215.560372,200.60362 L211.399381,195.254133 L211.399381,201.594265 C211.399381,205.754977 212.390093,207.736269 214.371517,207.736269 C216.154799,207.736269 218.136223,209.321302 218.928793,211.302594 C220.117647,214.274531 220.315789,214.076402 220.910217,210.311948 C221.306502,207.736269 222.495356,205.754977 223.486068,205.754977 L223.486068,205.754977 Z M168.798762,205.556848 C169.195046,202.188653 168.798762,201.990524 166.22291,204.566203 C164.637771,206.151236 164.043344,208.330656 164.835913,209.71756 C166.619195,212.689498 168.402477,210.708206 168.798762,205.556848 L168.798762,205.556848 Z M256.972136,205.754977 C256.972136,204.764332 255.981424,203.773686 254.79257,203.773686 C253.801858,203.773686 253.405573,204.764332 254,205.754977 C254.594427,206.943752 255.585139,207.736269 256.179567,207.736269 C256.575851,207.736269 256.972136,206.943752 256.972136,205.754977 L256.972136,205.754977 Z M168.204334,191.489679 C166.421053,189.706516 165.826625,190.102775 165.826625,193.867229 C165.826625,197.631682 166.421053,198.027941 168.204334,196.244778 C169.987616,194.461616 169.987616,193.272841 168.204334,191.489679 L168.204334,191.489679 Z M179.696594,193.669099 C179.696594,192.480325 178.904025,192.282195 177.71517,192.876583 C176.724458,193.47097 175.733746,195.056003 175.733746,196.046649 C175.733746,197.235424 176.724458,197.433553 177.71517,196.839166 C178.904025,196.244778 179.696594,194.659745 179.696594,193.669099 L179.696594,193.669099 Z M269.851393,195.84852 C270.44582,194.857874 270.247678,193.867229 269.058824,193.867229 C268.068111,193.867229 266.482972,194.857874 265.888545,195.84852 C265.294118,197.037295 265.49226,197.829812 266.681115,197.829812 C267.671827,197.829812 269.256966,197.037295 269.851393,195.84852 L269.851393,195.84852 Z M265.690402,170.28986 C268.860681,166.921664 268.860681,166.525406 265.49226,165.73289 C262.916409,164.940373 261.925697,165.931019 261.727554,169.497343 C261.331269,175.04496 261.331269,175.04496 265.690402,170.28986 L265.690402,170.28986 Z M253.801858,163.157211 C254.396285,161.374048 253.801858,160.185273 252.018576,160.185273 C250.433437,160.185273 249.04644,161.572177 249.04644,163.157211 C249.04644,164.742244 249.839009,166.129148 250.829721,166.129148 C251.820433,166.129148 253.009288,164.742244 253.801858,163.157211 L253.801858,163.157211 Z M263.510836,152.260108 C264.105263,149.684429 263.510836,148.297525 261.727554,148.297525 C260.142415,148.297525 258.95356,150.080687 258.95356,152.260108 C258.95356,154.439528 259.74613,156.22269 260.736842,156.22269 C261.727554,156.22269 262.916409,154.439528 263.510836,152.260108 L263.510836,152.260108 Z M252.216718,150.080687 C252.811146,148.891912 252.414861,146.910621 251.226006,145.721846 C249.442724,143.938683 248.452012,144.136812 247.065015,146.316233 C245.281734,149.28817 246.272446,152.260108 249.04644,152.260108 C250.037152,152.260108 251.424149,151.269462 252.216718,150.080687 L252.216718,150.080687 Z" id="Shape" style="mix-blend-mode: darken;"></path>
                <path d="M961.368421,309.970909 C953.640867,306.404585 942.544892,299.470064 936.402477,294.714965 C924.910217,285.601024 906.879257,266.382497 906.879257,263.21243 C906.879257,262.221785 904.501548,258.853589 901.727554,255.881652 C890.829721,244.58829 879.733746,214.274531 874.978328,183.366384 C871.80805,163.157211 873.789474,113.823053 878.346749,98.7652376 C882.904025,83.3111641 893.20743,59.139408 895.188854,59.139408 C896.179567,59.139408 896.972136,58.1487623 896.972136,56.9599874 C896.972136,52.6011461 905.095975,43.4872053 907.869969,44.6759802 C909.851393,45.2703677 910.44582,44.8741094 909.851393,42.8928179 C907.275542,36.354556 944.724458,5.05015065 958.396285,2.47447173 C967.312693,0.493180252 965.727554,4.05950491 952.452012,14.3622206 C941.356037,22.881774 926.693498,41.704043 923.721362,51.4123713 C922.928793,53.3936627 921.739938,55.1768251 920.749226,55.1768251 C919.956656,55.1768251 918.569659,58.7431497 917.77709,63.101991 C915.597523,75.7822564 909.851393,78.9523228 899.547988,73.4047067 C896.972136,72.0178026 894.990712,71.225286 894.79257,71.4234152 C893.603715,75.9803856 892.811146,80.537356 892.613003,82.9149058 C892.613003,84.499939 891.622291,87.0756179 890.433437,88.4625219 C889.244582,90.0475551 889.244582,90.8400717 890.631579,90.8400717 C891.820433,90.8400717 893.405573,89.0569094 894,86.8774887 C894.990712,83.9055515 896.377709,83.1130349 899.151703,83.9055515 C901.925697,84.8961972 902.520124,84.499939 901.727554,82.1223892 C900.736842,79.7448394 901.727554,78.9523228 905.294118,78.9523228 C912.229102,78.9523228 912.625387,80.1410977 909.653251,91.4344591 C908.068111,97.1802044 906.879257,106.096016 906.879257,111.247374 C906.879257,116.596861 905.888545,122.738864 904.69969,124.918285 C903.114551,127.692093 903.114551,129.475256 904.69969,131.060289 C906.086687,132.447193 906.879257,142.749908 906.879257,158.203982 C906.879257,171.874893 907.869969,188.319612 909.058824,194.857874 C910.247678,201.396136 911.040248,208.528786 911.040248,210.708206 C911.040248,212.887627 912.427245,218.038985 914.210526,222.199697 C917.578947,230.124863 916.98452,232.700542 911.634675,230.71925 C909.851393,230.124863 908.860681,228.3417 909.653251,226.558538 C910.247678,224.973505 909.851393,223.586601 909.058824,223.586601 C908.068111,223.586601 906.681115,224.973505 906.086687,226.756667 C905.294118,228.539829 903.510836,229.530475 901.925697,228.737959 C900.142415,228.143571 898.95356,228.737959 898.95356,230.521121 C898.95356,232.106154 901.331269,233.493058 904.501548,233.889316 C908.068111,234.285575 909.851393,235.47435 909.653251,237.851899 C909.455108,239.833191 910.049536,240.823837 911.040248,240.229449 C912.03096,239.635062 912.823529,237.851899 912.823529,236.266866 C912.823529,228.3417 920.749226,237.65377 921.541796,246.569582 C921.93808,250.532165 923.126935,254.296619 924.117647,255.089135 C925.108359,255.683523 928.080495,260.636751 930.458204,266.184368 C933.034056,271.533855 936.798762,277.2796 938.978328,278.666504 C941.157895,280.251537 942.346749,282.629087 941.950464,283.817862 C941.356037,285.204766 943.535604,287.978574 946.705882,289.761736 C949.876161,291.544898 952.452012,294.318707 952.452012,295.507481 C952.452012,296.894385 956.018576,299.470064 960.377709,301.451356 C964.736842,303.234518 971.869969,306.404585 976.229102,308.385876 C980.588235,310.169038 984.154799,312.942846 984.154799,314.32975 C984.154799,318.490463 975.634675,316.905429 961.368421,309.970909 L961.368421,309.970909 Z M916.786378,247.163969 C916.786378,246.173324 915.993808,245.380807 914.804954,245.380807 C913.814241,245.380807 912.823529,246.767711 912.823529,248.550873 C912.823529,250.135907 913.814241,250.928423 914.804954,250.334036 C915.993808,249.739648 916.786378,248.352744 916.786378,247.163969 L916.786378,247.163969 Z M903.708978,222.595955 C902.520124,219.425889 898.95356,218.435243 898.95356,221.209051 C898.95356,223.388472 901.133127,225.567892 903.114551,225.567892 C904.105263,225.567892 904.303406,224.180988 903.708978,222.595955 L903.708978,222.595955 Z M898.160991,212.887627 C898.160991,210.311948 896.377709,207.141881 894.594427,205.953107 C891.622291,204.169944 891.027864,204.368073 891.027864,207.934398 C891.027864,211.302594 895.386997,216.85021 898.160991,217.642726 C898.359133,217.642726 898.359133,215.463306 898.160991,212.887627 L898.160991,212.887627 Z M906.879257,211.698852 C906.879257,210.708206 906.086687,209.71756 904.897833,209.71756 C903.907121,209.71756 902.916409,210.708206 902.916409,211.698852 C902.916409,212.887627 903.907121,213.680143 904.897833,213.680143 C906.086687,213.680143 906.879257,212.887627 906.879257,211.698852 L906.879257,211.698852 Z M900.934985,197.631682 C900.934985,196.442908 900.142415,196.244778 898.95356,196.839166 C897.962848,197.433553 896.972136,199.018586 896.972136,200.009232 C896.972136,201.198007 897.962848,201.396136 898.95356,200.801749 C900.142415,200.207361 900.934985,198.622328 900.934985,197.631682 L900.934985,197.631682 Z M896.377709,194.461616 C895.585139,193.867229 894.396285,193.867229 893.603715,194.461616 C893.009288,195.254133 893.603715,195.84852 894.990712,195.84852 C896.377709,195.84852 896.972136,195.254133 896.377709,194.461616 L896.377709,194.461616 Z M897.962848,178.016897 C898.557276,177.026251 897.764706,176.035605 895.981424,176.035605 C894.198142,176.035605 893.405573,177.026251 894,178.016897 C894.594427,179.205672 895.585139,179.998188 895.981424,179.998188 C896.377709,179.998188 897.368421,179.205672 897.962848,178.016897 L897.962848,178.016897 Z M898.95356,134.230355 C898.95356,133.04158 898.160991,132.843451 896.972136,133.437838 C895.981424,134.032226 894.990712,135.617259 894.990712,136.607905 C894.990712,137.79668 895.981424,137.994809 896.972136,137.400421 C898.160991,136.806034 898.95356,135.221001 898.95356,134.230355 L898.95356,134.230355 Z M895.981424,122.540735 C896.575851,121.55009 896.377709,120.559444 895.188854,120.559444 C894.198142,120.559444 892.613003,121.55009 892.018576,122.540735 C891.424149,123.72951 891.622291,124.522027 892.811146,124.522027 C893.801858,124.522027 895.386997,123.72951 895.981424,122.540735 L895.981424,122.540735 Z" id="Shape" style="mix-blend-mode: darken;"></path>
                <path d="M1056.47678,312.942846 C1055.48607,310.961555 1056.27864,310.169038 1065.59133,304.819551 C1079.4613,296.894385 1089.76471,284.21412 1099.67183,263.21243 C1108.78638,243.993903 1110.56966,236.861254 1112.94737,211.896981 C1117.10836,168.902956 1114.73065,131.852805 1105.02167,91.23633 C1100.4644,72.2159318 1087.58514,44.2797219 1079.06502,35.1657811 C1075.89474,31.7975856 1073.31889,28.231261 1073.31889,27.4387444 C1073.31889,25.0611946 1059.8452,15.1547372 1049.14551,9.60712105 C1039.63467,4.65389236 1035.86997,-1.68624037 1043.59752,0.493180252 C1045.77709,1.0875677 1049.5418,2.27634258 1052.11765,2.87073003 C1067.37461,7.42770043 1106.21053,39.9208807 1115.9195,56.7618582 C1118.09907,60.1300538 1120.27864,63.101991 1121.07121,63.101991 C1121.86378,63.101991 1124.83591,69.0458654 1128.00619,76.574773 C1130.97833,83.9055515 1134.14861,90.8400717 1134.94118,91.8307174 C1137.91331,96.1895587 1144.45201,124.522027 1146.63158,143.146167 C1150.59443,176.629993 1145.64087,214.868918 1134.14861,239.238803 C1127.80805,252.513456 1117.3065,269.354434 1111.36223,275.496438 C1093.72755,293.52619 1085.80186,300.856968 1083.82043,300.856968 C1082.43344,300.856968 1081.24458,301.847614 1081.24458,302.83826 C1081.24458,304.027035 1080.05573,304.819551 1078.86687,304.819551 C1077.47988,304.819551 1073.71517,306.998972 1070.54489,309.77278 C1064.60062,314.924138 1058.65635,316.112913 1056.47678,312.942846 L1056.47678,312.942846 Z M1126.81734,221.40718 C1126.81734,217.642726 1125.82663,215.661435 1123.8452,215.661435 C1122.06192,215.661435 1121.46749,216.85021 1122.06192,218.633372 C1122.85449,220.416534 1122.06192,221.605309 1120.0805,221.605309 C1118.29721,221.605309 1116.91022,223.190342 1116.91022,224.973505 C1116.91022,227.549184 1117.50464,227.747313 1119.28793,225.964151 C1122.65635,222.595955 1125.43034,222.992213 1124.04334,226.756667 C1123.44892,228.3417 1123.64706,229.134217 1124.83591,228.539829 C1126.02477,227.945442 1126.81734,224.775376 1126.81734,221.40718 L1126.81734,221.40718 Z M1132.76161,227.549184 C1132.76161,226.558538 1131.96904,225.567892 1130.78019,225.567892 C1129.78947,225.567892 1128.79876,226.558538 1128.79876,227.549184 C1128.79876,228.737959 1129.78947,229.530475 1130.78019,229.530475 C1131.96904,229.530475 1132.76161,228.737959 1132.76161,227.549184 L1132.76161,227.549184 Z M1129.78947,208.528786 C1127.80805,206.943752 1125.82663,206.151236 1125.2322,206.547494 C1123.8452,208.132527 1129.78947,213.283885 1131.57276,212.09511 C1132.56347,211.500723 1131.7709,209.91569 1129.78947,208.528786 L1129.78947,208.528786 Z M1128.20433,200.40549 C1127.41176,199.811103 1126.22291,199.811103 1125.43034,200.40549 C1124.83591,201.198007 1125.43034,201.792394 1126.81734,201.792394 C1128.20433,201.792394 1128.79876,201.198007 1128.20433,200.40549 L1128.20433,200.40549 Z M1128.79876,189.904646 C1131.37461,188.319612 1131.37461,187.923354 1128.40248,187.923354 C1126.6192,187.923354 1124.43963,188.914 1123.8452,189.904646 C1122.26006,192.480325 1124.83591,192.480325 1128.79876,189.904646 L1128.79876,189.904646 Z M1132.95975,181.186963 C1131.17647,179.007542 1131.17647,178.215026 1133.15789,177.422509 C1134.94118,176.629993 1134.94118,176.233734 1133.35604,176.233734 C1129.59133,176.035605 1128.00619,180.196317 1130.97833,182.177609 C1134.94118,184.753288 1135.5356,184.357029 1132.95975,181.186963 L1132.95975,181.186963 Z M1132.76161,165.73289 C1132.76161,164.742244 1131.57276,164.147856 1129.98762,164.147856 C1128.40248,164.147856 1127.41176,166.129148 1127.41176,169.101085 C1127.41176,173.658055 1127.60991,173.856185 1129.98762,170.686118 C1131.37461,168.704827 1132.76161,166.525406 1132.76161,165.73289 L1132.76161,165.73289 Z M1127.01548,158.798369 C1127.21362,156.817078 1127.21362,154.439528 1127.01548,153.647012 C1126.81734,152.656366 1128.60062,151.467591 1130.78019,150.873203 C1132.95975,150.278816 1134.14861,149.090041 1133.55418,148.099395 C1132.95975,147.10875 1131.57276,146.712491 1130.58204,147.306879 C1129.59133,148.099395 1128.79876,147.505008 1128.79876,146.514362 C1128.79876,145.325587 1129.98762,144.334942 1131.37461,144.136812 C1132.56347,144.136812 1131.96904,143.344296 1129.78947,142.551779 C1127.60991,141.561134 1125.43034,141.164875 1125.03406,141.561134 C1123.44892,142.948038 1123.44892,162.166565 1125.03406,162.166565 C1126.02477,162.166565 1127.01548,160.581532 1127.01548,158.798369 L1127.01548,158.798369 Z M1124.83591,134.428484 C1124.83591,133.437838 1124.43963,132.447193 1124.04334,132.447193 C1123.44892,132.447193 1122.4582,133.437838 1121.86378,134.428484 C1121.26935,135.617259 1121.66563,136.409776 1122.65635,136.409776 C1123.8452,136.409776 1124.83591,135.617259 1124.83591,134.428484 L1124.83591,134.428484 Z M1124.83591,118.578152 C1124.83591,117.587507 1123.44892,116.596861 1121.86378,116.596861 C1120.27864,116.596861 1118.89164,117.587507 1118.89164,118.578152 C1118.89164,119.766927 1120.27864,120.559444 1121.86378,120.559444 C1123.44892,120.559444 1124.83591,119.766927 1124.83591,118.578152 L1124.83591,118.578152 Z M1126.81734,106.690404 C1126.81734,105.699758 1126.02477,104.709112 1124.83591,104.709112 C1123.8452,104.709112 1122.85449,105.699758 1122.85449,106.690404 C1122.85449,107.879178 1123.8452,108.671695 1124.83591,108.671695 C1126.02477,108.671695 1126.81734,107.879178 1126.81734,106.690404 L1126.81734,106.690404 Z M1123.44892,95.9914295 C1124.63777,92.8213632 1123.05263,90.4438134 1120.67492,92.0288466 C1118.29721,93.4157506 1118.49536,98.7652376 1120.67492,98.7652376 C1121.66563,98.7652376 1122.85449,97.5764627 1123.44892,95.9914295 L1123.44892,95.9914295 Z M1119.48607,84.8961972 C1118.89164,82.7167766 1118.09907,80.9336143 1117.90093,80.9336143 C1117.70279,80.9336143 1116.91022,82.7167766 1116.31579,84.8961972 C1115.72136,87.273747 1116.31579,88.8587802 1117.90093,88.8587802 C1119.48607,88.8587802 1120.0805,87.273747 1119.48607,84.8961972 L1119.48607,84.8961972 Z M1101.45511,52.7992753 C1098.48297,49.8273381 1096.30341,52.0067587 1097.88854,56.3656 C1098.87926,58.9412789 1099.67183,59.3375372 1101.45511,57.5543748 C1103.23839,55.7712125 1103.23839,54.5824376 1101.45511,52.7992753 L1101.45511,52.7992753 Z" id="Shape" style="mix-blend-mode: darken;"></path>
                <path d="M535.164087,301.055098 C528.03096,297.885031 518.718266,286.987928 517.529412,280.449666 C515.349845,268.561917 514.95356,258.457331 513.566563,188.715871 C512.179567,120.559444 512.179567,119.17254 516.340557,109.464212 C520.501548,100.152142 528.427245,92.8213632 536.352941,91.23633 C551.213622,88.2643928 560.328173,88.6606511 568.650155,92.8213632 C582.123839,99.5577542 584.105263,105.303499 584.501548,136.607905 L584.897833,163.157211 L575.981424,164.147856 C571.027864,164.742244 564.687307,164.742244 561.71517,164.345986 L556.167183,163.751598 L556.167183,146.514362 C556.167183,117.587507 552.600619,107.284791 545.26935,114.813699 C541.702786,118.380023 541.306502,130.66403 543.089783,206.151236 C544.47678,277.873987 545.863777,285.006637 555.770898,278.072116 C559.535604,275.298308 559.733746,273.713275 558.941176,251.324681 C558.544892,238.248158 557.950464,226.756667 557.752322,225.964151 C557.55418,225.171634 557.950464,222.794084 558.743034,220.416534 C559.931889,216.85021 561.913313,216.255822 574,216.057693 L587.869969,215.661435 L587.869969,246.767711 C587.869969,275.496438 587.473684,278.666504 583.312693,285.799153 C576.377709,298.08316 570.433437,301.253227 553.789474,302.045743 C545.863777,302.442002 537.541796,302.045743 535.164087,301.055098 L535.164087,301.055098 Z M537.145511,214.47266 C539.126935,209.519431 536.947368,208.726915 534.371517,213.482014 C533.182663,215.859564 532.98452,217.642726 534.173375,217.642726 C535.164087,217.642726 536.551084,216.255822 537.145511,214.47266 L537.145511,214.47266 Z M573.405573,146.910621 C572.613003,146.316233 572.018576,146.910621 572.018576,148.297525 C572.018576,149.684429 572.613003,150.278816 573.405573,149.684429 C574,148.891912 574,147.703137 573.405573,146.910621 L573.405573,146.910621 Z" id="Shape" style="mix-blend-mode: darken;"></path>
                <path d="M15.2383901,271.930113 C15.2383901,268.165659 13.4551084,251.324681 11.2755418,234.879962 C9.09597523,218.237114 6.32198142,197.631682 5.13312693,188.914 C3.94427245,180.196317 2.16099071,168.308569 0.972136223,162.364694 C-0.0185758514,156.618949 -0.216718266,151.071333 0.773993808,150.278816 C1.56656347,149.28817 7.3126935,148.099395 13.2569659,147.505008 C19.2012384,146.910621 33.4674923,144.929329 44.9597523,143.344296 C56.4520124,141.561134 68.9349845,139.777971 72.6996904,139.579842 C76.6625387,139.183584 84.3900929,137.79668 89.9380805,136.409776 C99.0526316,134.032226 100.241486,134.032226 104.006192,137.598551 C107.374613,140.768617 108.167183,144.334942 108.563467,159.194628 L109.356037,176.828122 L83.5975232,179.403801 C46.3467492,182.970125 48.130031,182.375738 49.7151703,193.47097 C50.3095975,198.424199 51.8947368,203.575557 52.8854489,204.566203 C55.4613003,207.141881 63.1888545,203.377428 76.0681115,193.47097 C89.3436533,183.366384 94.495356,184.951417 92.7120743,199.216716 C92.5139319,200.40549 93.3065015,205.358719 94.2972136,209.91569 C96.4767802,219.02963 94.0990712,225.171634 89.7399381,221.803438 C87.3622291,220.020276 64.377709,212.491368 57.8390093,211.302594 C54.2724458,210.708206 53.876161,211.896981 53.6780186,222.199697 C53.4798762,228.3417 53.876161,233.493058 54.6687307,233.691187 C61.8018576,234.681833 67.1517028,234.285575 68.1424149,233.0968 C68.5386997,232.106154 72.3034056,231.511767 76.2662539,231.709896 C80.2291022,231.709896 88.1547988,230.917379 93.504644,229.530475 C110.346749,225.567892 122.037152,224.775376 123.226006,227.945442 C123.622291,229.332346 125.009288,238.050029 126.198142,247.163969 C127.585139,259.447977 127.585139,264.401205 126,265.391851 C124.216718,266.382497 99.6470588,269.156305 83.5975232,270.146951 C81.4179567,270.146951 76.0681115,270.939467 71.7089783,271.731984 C67.3498452,272.5245 58.8297214,273.515146 52.8854489,274.109533 C46.9411765,274.703921 38.4210526,276.090825 34.0619195,277.081471 C29.7027864,278.072116 23.7585139,279.062762 20.7863777,279.062762 C15.8328173,279.062762 15.2383901,278.468375 15.2383901,271.930113 L15.2383901,271.930113 Z M39.8080495,209.519431 C38.2229102,206.745623 35.0526316,207.53814 35.0526316,210.708206 C35.0526316,212.491368 36.2414861,213.085756 38.0247678,212.491368 C39.6099071,211.698852 40.4024768,210.510077 39.8080495,209.519431 L39.8080495,209.519431 Z M42.5820433,203.773686 C41.1950464,201.594265 39.6099071,200.801749 39.2136223,201.990524 C38.8173375,203.179299 39.8080495,204.962461 41.1950464,205.953107 C45.1578947,208.330656 45.3560372,208.132527 42.5820433,203.773686 L42.5820433,203.773686 Z" id="Shape" style="mix-blend-mode: darken;"></path>
                <path d="M373.876161,274.109533 C372.687307,272.5245 372.092879,269.552563 372.885449,267.373142 C374.074303,263.21243 376.650155,249.541519 380.811146,222.001568 C382.396285,211.896981 385.962848,192.678454 388.736842,179.403801 C391.312693,166.129148 394.086687,151.269462 394.681115,146.514362 C395.275542,141.759263 396.266254,137.202292 396.662539,136.409776 C397.256966,135.617259 403.993808,134.428484 411.919505,133.635968 C419.845201,132.843451 429.752322,131.654676 433.71517,131.060289 C440.452012,130.069643 441.244582,130.465901 444.811146,137.598551 C446.990712,141.957392 451.944272,153.845141 456.105263,164.147856 C463.634675,183.762642 465.219814,187.527096 473.541796,205.754977 C485.430341,232.106154 496.724458,259.051718 496.724458,261.03301 C496.724458,262.221785 495.139319,263.21243 493.356037,263.410559 C489.789474,263.608689 486.619195,264.004947 476.910217,265.986238 C470.173375,267.175013 468.588235,265.986238 464.229102,255.287264 C454.321981,231.313638 455.907121,233.0968 445.603715,234.285575 C440.452012,235.078091 430.743034,236.068737 423.80805,236.464995 C407.956656,237.65377 403.597523,240.03132 403.399381,247.362099 C403.201238,250.730294 403.003096,253.90036 402.804954,254.891006 C402.606811,255.683523 401.616099,260.042364 400.823529,264.797464 C399.040248,274.109533 399.040248,274.307663 385.368421,275.892696 C378.829721,276.685212 375.659443,276.090825 373.876161,274.109533 L373.876161,274.109533 Z M443.622291,208.132527 C444.216718,207.340011 442.829721,202.584911 440.25387,197.433553 C437.876161,192.480325 432.724458,180.988834 428.76161,171.874893 C421.826625,155.826432 421.628483,155.628303 419.647059,160.97779 C418.458204,163.949727 417.467492,168.110439 417.467492,170.091731 C417.467492,172.073022 416.278638,179.007542 414.693498,185.347675 C413.108359,191.687808 411.325077,200.40549 410.532508,204.566203 L409.343653,212.293239 L425.789474,210.906335 C434.705882,210.113819 442.829721,208.925044 443.622291,208.132527 L443.622291,208.132527 Z M437.281734,169.893602 C437.281734,168.704827 436.489164,168.506698 435.30031,169.101085 C434.309598,169.695473 433.318885,171.280506 433.318885,172.271151 C433.318885,173.459926 434.309598,173.658055 435.30031,173.063668 C436.489164,172.469281 437.281734,170.884247 437.281734,169.893602 L437.281734,169.893602 Z" id="Shape" style="mix-blend-mode: darken;"></path>
                <path d="M773.133127,260.438622 C749.157895,247.163969 738.656347,230.917379 735.684211,201.990524 C734.891641,193.867229 739.052632,172.469281 743.213622,164.742244 C749.157895,152.854495 762.829721,139.9761 775.708978,134.032226 C786.804954,128.682739 789.975232,128.088351 799.684211,129.078997 C805.826625,129.871514 814.148607,131.654676 818.111455,133.239709 C840.303406,142.551779 857.93808,172.865539 845.058824,179.60193 C839.907121,182.375738 808.996904,185.942063 790.569659,185.942063 C783.634675,185.942063 774.123839,186.932708 769.170279,188.319612 C760.452012,190.697162 760.25387,190.895291 760.25387,198.820457 C760.25387,207.934398 764.613003,224.973505 769.764706,235.47435 C777.095975,250.532165 791.560372,258.65546 807.411765,256.476039 C816.922601,255.089135 833.368421,244.984549 841.095975,235.27622 C846.643963,228.3417 855.362229,227.351055 855.362229,233.493058 C855.362229,239.238803 838.123839,255.089135 825.640867,260.834881 C817.318885,264.797464 811.176471,265.986238 799.486068,266.184368 C785.814241,266.580626 783.040248,265.986238 773.133127,260.438622 L773.133127,260.438622 Z M806.024768,174.84683 C825.839009,173.063668 826.433437,172.66741 823.857585,162.562823 C817.913313,140.570488 796.513932,132.447193 776.69969,144.533071 C769.368421,149.090041 762.235294,162.562823 762.235294,172.073022 L762.235294,178.611284 L776.69969,177.422509 C784.427245,176.629993 797.702786,175.639347 806.024768,174.84683 L806.024768,174.84683 Z" id="Shape" style="mix-blend-mode: darken;"></path>
                <path d="M672.080495,260.834881 C671.089783,256.476039 665.343653,228.143571 660.19195,201.792394 C653.455108,167.516052 649.294118,146.910621 648.303406,142.551779 C646.916409,137.400421 647.312693,137.400421 621.157895,143.938683 C604.315789,148.099395 603.126935,147.703137 600.947368,137.004163 C599.164087,129.277126 601.739938,127.493964 620.76161,124.323898 C635.424149,121.946348 647.312693,119.568798 655.23839,117.785636 C658.012384,117.191248 664.154799,115.804344 669.108359,114.813699 C674.06192,113.624924 686.148607,110.851116 695.857585,108.473566 C705.764706,106.294145 716.860681,104.114725 720.427245,103.916595 C726.965944,103.718466 727.362229,104.114725 728.947368,111.445503 C729.93808,115.804344 729.93808,119.965056 728.947368,120.955702 C727.956656,121.946348 721.814241,123.72951 715.473684,124.720156 C708.934985,125.908931 700.613003,127.295835 696.848297,127.890222 C693.083591,128.48461 689.318885,129.871514 688.724458,130.86216 C688.130031,131.852805 689.120743,139.579842 691.30031,147.901266 C693.281734,156.22269 695.659443,167.119794 696.650155,172.073022 C697.640867,177.026251 701.603715,196.442908 705.566563,215.067047 C714.086687,255.881652 714.28483,258.853589 708.340557,260.042364 C705.764706,260.438622 699.027864,261.825526 693.281734,263.014301 C677.232198,266.382497 673.26935,265.986238 672.080495,260.834881 L672.080495,260.834881 Z" id="Shape" style="mix-blend-mode: darken;"></path>
                <path d="M500.687307,258.259202 C500.687307,252.513456 503.659443,251.72094 506.433437,257.070427 C508.613003,261.03301 507.424149,263.21243 503.263158,263.21243 C501.876161,263.21243 500.687307,261.03301 500.687307,258.259202 L500.687307,258.259202 Z" id="Shape" style="mix-blend-mode: darken;"></path>
                <path d="M976.427245,253.90036 C959.188854,244.78642 957.405573,241.220095 957.405573,215.067047 L957.405573,193.074712 L975.832817,192.876583 C988.117647,192.480325 994.656347,193.272841 995.052632,194.659745 C995.448916,195.84852 996.241486,201.792394 996.637771,207.736269 C997.232198,215.661435 996.637771,219.624018 994.458204,222.199697 C991.684211,225.369763 991.684211,225.567892 994.458204,224.577246 C996.241486,223.78473 998.22291,224.180988 999.01548,225.369763 C999.609907,226.558538 1001.98762,227.549184 1003.96904,227.549184 C1007.13932,227.549184 1007.73375,225.766021 1008.32817,216.255822 C1008.72446,208.925044 1009.71517,204.764332 1011.49845,204.566203 C1012.68731,204.368073 1014.86687,204.169944 1015.85759,203.971815 C1017.04644,203.971815 1017.83901,202.78304 1017.83901,201.792394 C1017.83901,200.60362 1015.65944,200.207361 1012.88545,200.999878 C1008.32817,202.188653 1007.93189,201.594265 1007.73375,195.056003 C1007.33746,184.555159 1007.13932,183.960771 1004.16718,182.177609 C1002.58204,181.186963 1001.98762,178.809413 1002.78019,175.837476 C1003.37461,173.261797 1003.37461,172.271151 1002.78019,173.658055 C1001.59133,176.233734 996.043344,177.026251 996.043344,174.648701 C996.043344,173.658055 993.071207,169.893602 989.504644,166.129148 C971.077399,146.118104 960.773994,132.645322 958.396285,125.710802 C956.216718,118.974411 955.226006,83.9055515 957.009288,74.9897399 C959.386997,63.101991 966.321981,54.3843085 978.408669,48.2423049 C986.73065,43.8834636 1013.28173,42.1003013 1022.99071,45.2703677 C1031.90712,48.0441757 1046.96594,58.7431497 1048.55108,63.101991 C1050.33437,68.451478 1053.50464,104.510983 1052.31579,107.284791 C1051.52322,109.266082 1046.7678,109.86047 1032.10526,109.662341 L1012.88545,109.464212 L1012.68731,98.5671085 C1012.48916,92.623234 1011.69659,86.4812304 1011.10217,84.6980681 C1010.3096,82.9149058 1009.91331,80.3392268 1010.3096,79.150452 C1010.70588,77.7635479 1008.9226,75.7822564 1006.54489,74.9897399 C1001.59133,73.0084484 1000.60062,74.9897399 999.80805,87.8681345 C998.817337,109.86047 999.609907,113.624924 1008.13003,123.333252 C1012.88545,128.682739 1015.85759,133.635968 1015.06502,135.41913 C1014.47059,137.004163 1014.66873,139.9761 1015.26316,141.957392 C1016.45201,144.929329 1016.8483,144.7312 1017.83901,140.768617 C1018.82972,136.607905 1019.42415,137.004163 1028.14241,145.721846 C1047.75851,165.73289 1049.73994,168.902956 1051.9195,184.357029 C1054.49536,203.377428 1052.91022,231.115508 1048.94737,238.446287 C1044.58824,246.173324 1040.62539,251.324681 1038.64396,251.324681 C1037.65325,251.324681 1035.27554,252.909715 1033.29412,254.692877 C1030.52012,257.268556 1024.77399,258.061072 1008.32817,258.65546 C988.117647,259.447977 986.73065,259.249847 976.427245,253.90036 L976.427245,253.90036 Z M975.436533,240.427578 C973.851393,238.842545 972.068111,237.455641 971.473684,237.455641 C970.879257,237.455641 970.879257,238.842545 971.473684,240.427578 C972.266254,242.012612 974.049536,243.399516 975.634675,243.399516 C978.012384,243.399516 978.012384,243.003257 975.436533,240.427578 L975.436533,240.427578 Z M1010.11146,241.616353 C1008.72446,240.625707 1008.13003,238.842545 1008.72446,237.65377 C1009.51703,236.464995 1009.31889,235.47435 1008.32817,235.47435 C1005.95046,235.47435 1003.7709,240.625707 1005.35604,242.210741 C1006.14861,242.805128 1007.93189,243.399516 1009.71517,243.399516 C1012.29102,243.399516 1012.29102,243.003257 1010.11146,241.616353 L1010.11146,241.616353 Z M986.136223,234.285575 C986.136223,231.511767 985.541796,231.511767 983.164087,233.493058 C981.578947,234.879962 980.19195,236.266866 980.19195,236.663125 C980.19195,237.059383 981.578947,237.455641 983.164087,237.455641 C984.749226,237.455641 986.136223,236.068737 986.136223,234.285575 L986.136223,234.285575 Z M969.49226,216.255822 C967.510836,214.274531 965.727554,217.246468 967.510836,219.822147 C968.69969,222.001568 969.095975,222.001568 969.888545,219.822147 C970.28483,218.435243 970.086687,216.85021 969.49226,216.255822 L969.49226,216.255822 Z M1039.63467,218.633372 C1039.63467,217.048339 1038.24768,215.661435 1036.66254,215.661435 C1034.87926,215.661435 1034.28483,216.85021 1034.87926,218.633372 C1035.67183,220.218405 1036.86068,221.605309 1037.85139,221.605309 C1038.84211,221.605309 1039.63467,220.218405 1039.63467,218.633372 L1039.63467,218.633372 Z M976.229102,211.698852 C978.804954,210.113819 978.606811,209.71756 975.436533,209.71756 C972.662539,209.71756 972.266254,209.123173 974.049536,207.141881 C975.23839,205.556848 975.634675,203.773686 974.842105,203.179299 C972.266254,200.60362 971.077399,201.792394 970.681115,207.736269 C970.28483,214.076402 971.275542,214.868918 976.229102,211.698852 L976.229102,211.698852 Z M1035.86997,207.340011 C1037.25697,204.962461 1036.66254,204.566203 1032.69969,205.358719 C1029.72755,205.754977 1027.74613,205.358719 1027.74613,203.971815 C1027.74613,202.78304 1026.35913,201.792394 1024.77399,201.792394 C1021.40557,201.792394 1020.81115,204.962461 1023.78328,206.745623 C1024.97214,207.53814 1025.36842,208.726915 1024.97214,209.321302 C1024.57585,210.113819 1026.35913,210.708206 1029.13313,210.510077 C1031.90712,210.510077 1034.87926,209.123173 1035.86997,207.340011 L1035.86997,207.340011 Z M1017.44272,179.007542 C1017.04644,178.809413 1014.66873,177.818768 1011.89474,177.22438 C1007.73375,176.035605 1007.33746,176.233734 1010.11146,178.413155 C1011.69659,179.800059 1013.87616,182.771996 1014.86687,184.951417 C1016.45201,188.715871 1016.65015,188.715871 1017.44272,184.357029 C1017.83901,181.781351 1017.83901,179.403801 1017.44272,179.007542 L1017.44272,179.007542 Z M1034.68111,168.506698 C1032.69969,166.525406 1031.51084,166.129148 1032.10526,167.119794 C1032.69969,168.308569 1033.6904,170.884247 1034.68111,173.063668 C1035.67183,175.837476 1036.4644,176.233734 1037.05882,174.450572 C1037.65325,172.865539 1036.4644,170.28986 1034.68111,168.506698 L1034.68111,168.506698 Z M1022.59443,166.921664 C1023.387,165.138502 1022.59443,162.166565 1020.81115,160.185273 C1019.22601,158.402111 1017.83901,155.628303 1017.83901,154.04327 C1017.83901,152.458237 1015.65944,151.071333 1012.88545,151.071333 C1006.94118,150.675074 1006.34675,153.448882 1011.89474,155.232045 C1014.66873,156.024561 1015.85759,158.203982 1015.85759,161.968436 C1015.85759,170.091731 1020.21672,173.261797 1022.59443,166.921664 L1022.59443,166.921664 Z M992.080495,148.297525 C992.080495,147.306879 991.089783,146.316233 989.900929,146.316233 C988.910217,146.316233 988.513932,147.306879 989.108359,148.297525 C989.702786,149.486299 990.693498,150.278816 991.287926,150.278816 C991.684211,150.278816 992.080495,149.486299 992.080495,148.297525 L992.080495,148.297525 Z M999.411765,140.966746 C998.619195,140.372359 998.024768,140.966746 998.024768,142.35365 C998.024768,143.740554 998.619195,144.334942 999.411765,143.740554 C1000.00619,142.948038 1000.00619,141.759263 999.411765,140.966746 L999.411765,140.966746 Z M998.619195,127.692093 C999.411765,125.710802 998.817337,125.116414 997.034056,125.908931 C995.448916,126.503318 994.656347,127.692093 995.250774,128.682739 C996.637771,131.060289 997.430341,130.86216 998.619195,127.692093 L998.619195,127.692093 Z M978.804954,88.2643928 C978.210526,87.4718762 979.003096,85.4905847 980.19195,83.9055515 C982.767802,80.7354851 980.786378,79.9429685 976.625387,82.5186475 C974.842105,83.7074224 974.643963,85.6887138 975.832817,89.0569094 C977.021672,91.8307174 976.823529,95.9914295 975.832817,99.359625 C974.643963,102.331562 974.44582,107.284791 975.436533,110.256728 C976.625387,114.615569 977.219814,113.426795 978.408669,102.727821 C979.201238,95.5951712 979.399381,89.0569094 978.804954,88.2643928 L978.804954,88.2643928 Z M970.681115,86.4812304 C969.49226,85.2924555 967.708978,84.8961972 966.916409,85.6887138 C966.123839,86.4812304 966.718266,87.8681345 968.303406,88.8587802 C970.681115,90.4438134 970.482972,91.4344591 967.114551,96.1895587 C964.142415,100.152142 963.547988,102.331562 965.133127,103.916595 C966.718266,105.699758 968.105263,103.916595 970.086687,97.5764627 C972.266254,90.8400717 972.464396,88.2643928 970.681115,86.4812304 L970.681115,86.4812304 Z M1028.5387,97.7745919 C1027.34985,90.4438134 1025.76471,88.8587802 1025.76471,94.8026546 C1025.76471,97.1802044 1024.17957,100.5484 1022.39628,101.737175 C1019.22601,104.114725 1019.42415,104.312854 1024.17957,104.114725 C1029.13313,103.718466 1029.52941,103.124079 1028.5387,97.7745919 L1028.5387,97.7745919 Z M1018.43344,93.4157506 C1017.44272,91.23633 1016.8483,91.0382008 1015.85759,93.0194923 C1014.86687,94.4063963 1014.66873,96.7839461 1015.26316,98.1708502 C1016.25387,100.350271 1016.8483,100.5484 1017.83901,98.5671085 C1018.82972,97.1802044 1019.02786,94.8026546 1018.43344,93.4157506 L1018.43344,93.4157506 Z M1025.56656,82.1223892 C1023.387,77.5654188 1019.82043,74.9897399 1019.82043,78.1598062 C1019.82043,79.7448394 1026.55728,88.6606511 1027.34985,87.8681345 C1027.54799,87.6700053 1026.75542,85.0943264 1025.56656,82.1223892 L1025.56656,82.1223892 Z M1017.24458,81.5280017 C1016.45201,80.9336143 1015.85759,81.5280017 1015.85759,82.9149058 C1015.85759,84.3018098 1016.45201,84.8961972 1017.24458,84.3018098 C1017.83901,83.5092932 1017.83901,82.3205183 1017.24458,81.5280017 L1017.24458,81.5280017 Z M1037.65325,77.9616771 C1037.65325,76.3766439 1036.26625,74.9897399 1034.68111,74.9897399 C1033.09598,74.9897399 1031.70898,76.3766439 1031.70898,77.9616771 C1031.70898,79.5467103 1033.09598,80.9336143 1034.68111,80.9336143 C1036.26625,80.9336143 1037.65325,79.5467103 1037.65325,77.9616771 L1037.65325,77.9616771 Z M1021.20743,68.0552197 C1020.81115,62.5076035 1020.41486,62.3094744 1015.06502,64.2907659 C1011.69659,65.6776699 1011.69659,65.8757991 1016.05573,69.2439946 C1018.63158,71.225286 1021.00929,73.0084484 1021.20743,73.0084484 C1021.40557,73.0084484 1021.40557,70.8290277 1021.20743,68.0552197 L1021.20743,68.0552197 Z M993.26935,63.6963784 C991.089783,61.5169578 989.504644,64.8851533 991.089783,68.451478 C992.674923,71.8196735 992.674923,71.8196735 993.467492,68.451478 C994.06192,66.4701865 993.863777,64.2907659 993.26935,63.6963784 L993.26935,63.6963784 Z M987.126935,61.3188286 C985.541796,58.7431497 980.19195,58.3468914 980.19195,60.9225704 C980.19195,61.9132161 981.77709,63.101991 983.758514,63.4982493 C987.919505,64.488895 988.910217,63.8945076 987.126935,61.3188286 L987.126935,61.3188286 Z" id="Shape" style="mix-blend-mode: darken;"></path>
            </g>
        </g>
    </g>
</svg>